<svg width="35" height="34" viewBox="0 0 35 34" fill="none" xmlns="http://www.w3.org/2000/svg">
<mask id="mask0_7_198" style="mask-type:alpha" maskUnits="userSpaceOnUse" x="0" y="0" width="35" height="34">
<rect x="0.5" width="34" height="34" fill="#D9D9D9"/>
</mask>
<g mask="url(#mask0_7_198)">
<path d="M9 28.3333C7.81945 28.3333 6.81597 27.9201 5.98958 27.0937C5.1632 26.2673 4.75 25.2638 4.75 24.0833H1.91667V8.49996C1.91667 7.72079 2.1941 7.05378 2.74896 6.49892C3.30382 5.94406 3.97083 5.66663 4.75 5.66663H24.5833V11.3333H28.8333L33.0833 17V24.0833H30.25C30.25 25.2638 29.8368 26.2673 29.0104 27.0937C28.184 27.9201 27.1806 28.3333 26 28.3333C24.8194 28.3333 23.816 27.9201 22.9896 27.0937C22.1632 26.2673 21.75 25.2638 21.75 24.0833H13.25C13.25 25.2638 12.8368 26.2673 12.0104 27.0937C11.184 27.9201 10.1806 28.3333 9 28.3333ZM9 25.5C9.40139 25.5 9.73785 25.3642 10.0094 25.0927C10.2809 24.8211 10.4167 24.4847 10.4167 24.0833C10.4167 23.6819 10.2809 23.3454 10.0094 23.0739C9.73785 22.8024 9.40139 22.6666 9 22.6666C8.59861 22.6666 8.26215 22.8024 7.99063 23.0739C7.7191 23.3454 7.58333 23.6819 7.58333 24.0833C7.58333 24.4847 7.7191 24.8211 7.99063 25.0927C8.26215 25.3642 8.59861 25.5 9 25.5ZM4.75 21.25H5.88333C6.28472 20.825 6.74514 20.4826 7.26458 20.2229C7.78403 19.9632 8.3625 19.8333 9 19.8333C9.6375 19.8333 10.216 19.9632 10.7354 20.2229C11.2549 20.4826 11.7153 20.825 12.1167 21.25H21.75V8.49996H4.75V21.25ZM26 25.5C26.4014 25.5 26.7378 25.3642 27.0094 25.0927C27.2809 24.8211 27.4167 24.4847 27.4167 24.0833C27.4167 23.6819 27.2809 23.3454 27.0094 23.0739C26.7378 22.8024 26.4014 22.6666 26 22.6666C25.5986 22.6666 25.2622 22.8024 24.9906 23.0739C24.7191 23.3454 24.5833 23.6819 24.5833 24.0833C24.5833 24.4847 24.7191 24.8211 24.9906 25.0927C25.2622 25.3642 25.5986 25.5 26 25.5ZM24.5833 18.4166H30.6042L27.4167 14.1666H24.5833V18.4166Z" fill="white"/>
</g>
</svg>
