<svg width="35" height="34" viewBox="0 0 35 34" fill="none" xmlns="http://www.w3.org/2000/svg">
<mask id="mask0_7_204" style="mask-type:alpha" maskUnits="userSpaceOnUse" x="0" y="0" width="35" height="34">
<rect x="0.5" width="34" height="34" fill="#D9D9D9"/>
</mask>
<g mask="url(#mask0_7_204)">
<path d="M7.58333 11.3334H27.4167V8.50004H7.58333V11.3334ZM7.58333 31.1667C6.80417 31.1667 6.13715 30.8893 5.58229 30.3344C5.02743 29.7796 4.75 29.1125 4.75 28.3334V8.50004C4.75 7.72087 5.02743 7.05386 5.58229 6.499C6.13715 5.94414 6.80417 5.66671 7.58333 5.66671H9V2.83337H11.8333V5.66671H23.1667V2.83337H26V5.66671H27.4167C28.1958 5.66671 28.8628 5.94414 29.4177 6.499C29.9726 7.05386 30.25 7.72087 30.25 8.50004V16.5396C29.8014 16.3271 29.341 16.15 28.8688 16.0084C28.3965 15.8667 27.9125 15.7605 27.4167 15.6896V14.1667H7.58333V28.3334H16.5083C16.6736 28.8528 16.8684 29.3487 17.0927 29.8209C17.317 30.2931 17.5826 30.7417 17.8896 31.1667H7.58333ZM26 32.5834C24.0403 32.5834 22.3698 31.8927 20.9885 30.5115C19.6073 29.1302 18.9167 27.4598 18.9167 25.5C18.9167 23.5403 19.6073 21.8698 20.9885 20.4886C22.3698 19.1073 24.0403 18.4167 26 18.4167C27.9597 18.4167 29.6302 19.1073 31.0115 20.4886C32.3927 21.8698 33.0833 23.5403 33.0833 25.5C33.0833 27.4598 32.3927 29.1302 31.0115 30.5115C29.6302 31.8927 27.9597 32.5834 26 32.5834ZM28.3729 28.8646L29.3646 27.873L26.7083 25.2167V21.25H25.2917V25.7834L28.3729 28.8646Z" fill="white"/>
</g>
</svg>
