<svg width="35" height="34" viewBox="0 0 35 34" fill="none" xmlns="http://www.w3.org/2000/svg">
<mask id="mask0_7_186" style="mask-type:alpha" maskUnits="userSpaceOnUse" x="0" y="0" width="35" height="34">
<rect x="0.5" width="34" height="34" fill="#D9D9D9"/>
</mask>
<g mask="url(#mask0_7_186)">
<path d="M17.5 32.5834V29.75H27.4167V28.3334H21.75V17H27.4167V15.5834C27.4167 12.8445 26.4486 10.507 24.5125 8.57087C22.5764 6.63476 20.2389 5.66671 17.5 5.66671C14.7611 5.66671 12.4236 6.63476 10.4875 8.57087C8.55139 10.507 7.58333 12.8445 7.58333 15.5834V17H13.25V28.3334H7.58333C6.80417 28.3334 6.13715 28.0559 5.58229 27.5011C5.02743 26.9462 4.75 26.2792 4.75 25.5V15.5834C4.75 13.8362 5.08646 12.1893 5.75937 10.6427C6.43229 9.09622 7.34722 7.74449 8.50417 6.58754C9.66111 5.4306 11.0128 4.51567 12.5594 3.84275C14.1059 3.16983 15.7528 2.83337 17.5 2.83337C19.2472 2.83337 20.8941 3.16983 22.4406 3.84275C23.9872 4.51567 25.3389 5.4306 26.4958 6.58754C27.6528 7.74449 28.5677 9.09622 29.2406 10.6427C29.9135 12.1893 30.25 13.8362 30.25 15.5834V29.75C30.25 30.5292 29.9726 31.1962 29.4177 31.7511C28.8628 32.3059 28.1958 32.5834 27.4167 32.5834H17.5ZM7.58333 25.5H10.4167V19.8334H7.58333V25.5ZM24.5833 25.5H27.4167V19.8334H24.5833V25.5Z" fill="white"/>
</g>
</svg>
