<svg width="35" height="34" viewBox="0 0 35 34" fill="none" xmlns="http://www.w3.org/2000/svg">
<mask id="mask0_7_178" style="mask-type:alpha" maskUnits="userSpaceOnUse" x="0" y="0" width="35" height="34">
<rect x="0.5" width="34" height="34" fill="#D9D9D9"/>
</mask>
<g mask="url(#mask0_7_178)">
<path d="M30.2854 15.6542V26.9167C30.2854 27.6958 30.008 28.3628 29.4531 28.9177C28.8983 29.4726 28.2312 29.75 27.4521 29.75H7.61874C6.83958 29.75 6.17256 29.4726 5.6177 28.9177C5.06284 28.3628 4.78541 27.6958 4.78541 26.9167V15.6542C4.24235 15.1583 3.82326 14.5208 3.52812 13.7417C3.23298 12.9625 3.22708 12.1125 3.51041 11.1917L4.99791 6.375C5.1868 5.76111 5.52326 5.25347 6.00728 4.85208C6.49131 4.45069 7.05208 4.25 7.68958 4.25H27.3812C28.0187 4.25 28.5736 4.44479 29.0458 4.83437C29.5181 5.22396 29.8604 5.7375 30.0729 6.375L31.5604 11.1917C31.8437 12.1125 31.8378 12.9507 31.5427 13.7063C31.2476 14.4618 30.8285 15.1111 30.2854 15.6542ZM20.6521 14.1667C21.2896 14.1667 21.7736 13.9483 22.1042 13.5115C22.4347 13.0747 22.5646 12.5847 22.4937 12.0417L21.7146 7.08333H18.9521V12.325C18.9521 12.8208 19.1174 13.2517 19.4479 13.6177C19.7785 13.9837 20.1799 14.1667 20.6521 14.1667ZM14.2771 14.1667C14.8201 14.1667 15.2628 13.9837 15.6052 13.6177C15.9476 13.2517 16.1187 12.8208 16.1187 12.325V7.08333H13.3562L12.5771 12.0417C12.4826 12.6083 12.6066 13.1042 12.949 13.5292C13.2913 13.9542 13.734 14.1667 14.2771 14.1667ZM7.97291 14.1667C8.39791 14.1667 8.76978 14.0132 9.08853 13.7063C9.40728 13.3993 9.60208 13.0097 9.67291 12.5375L10.4521 7.08333H7.68958L6.27291 11.8292C6.13124 12.3014 6.20798 12.809 6.50312 13.3521C6.79826 13.8951 7.28819 14.1667 7.97291 14.1667ZM27.0979 14.1667C27.7826 14.1667 28.2785 13.8951 28.5854 13.3521C28.8924 12.809 28.9632 12.3014 28.7979 11.8292L27.3104 7.08333H24.6187L25.3979 12.5375C25.4687 13.0097 25.6635 13.3993 25.9823 13.7063C26.301 14.0132 26.6729 14.1667 27.0979 14.1667ZM7.61874 26.9167H27.4521V16.9292C27.334 16.9764 27.2573 17 27.2219 17H27.0979C26.4604 17 25.8996 16.8938 25.4156 16.6813C24.9316 16.4688 24.4535 16.1264 23.9812 15.6542C23.5562 16.0792 23.0722 16.4097 22.5292 16.6458C21.9861 16.8819 21.4076 17 20.7937 17C20.1562 17 19.5601 16.8819 19.0052 16.6458C18.4503 16.4097 17.9604 16.0792 17.5354 15.6542C17.134 16.0792 16.6677 16.4097 16.1365 16.6458C15.6052 16.8819 15.0326 17 14.4187 17C13.734 17 13.1142 16.8819 12.5594 16.6458C12.0045 16.4097 11.5146 16.0792 11.0896 15.6542C10.5937 16.15 10.1038 16.4983 9.61978 16.699C9.13576 16.8997 8.5868 17 7.97291 17H7.81353C7.75451 17 7.68958 16.9764 7.61874 16.9292V26.9167Z" fill="white"/>
</g>
</svg>
